# xmcd
#
# Track frame offsets:
#	150
#	14483
#	28241
#	42710
#	57311
#	69518
#	82617
#	96654
#	110743
#	124577
#	138520
#	152177
#	166001
#	179953
#	198364
#	211916
#	226259
#	245503
#	261616
#	280636
#
# Disc length: 3923 seconds
#
# Revision: 0
# Processed by: cddbd v1.5.2PL0 Copyright (c) Steve Scherf et al.
# Submitted via: EasyCDDAExtractor 15.2.1.1
#
DISCID=2b0f5114
DTITLE=Jorge and Mateus - Aí Já Era
DYEAR=2010
DGENRE=
TTITLE0=Seu Astral
TTITLE1=Amo Noite E Dia
TTITLE2=Chove, Chove
TTITLE3=Tempo Ao Tempo
TTITLE4=Seu Eu Chorar
TTITLE5=Esquece O Medo E Vem
TTITLE6=Volta Pra Minha Vida
TTITLE7=Cilada
TTITLE8=Anjo Da Guarda
TTITLE9=Mil Anos
TTITLE10=Alguém No Seu Lugar
TTITLE11=Pra Ter O Seu Amor
TTITLE12=Vestígios
TTITLE13=Aí Já Era
TTITLE14=Amo Noite E Dia (part. John Kip)
TTITLE15=Espelhos (part. John Kip)
TTITLE16=Página Virada (part. Ch&X)
TTITLE17=Amo Noite E Dia Remix
TTITLE18=Inventor Dos Amores Remix
TTITLE19=Romance (part. Humberto and Ronaldo)
EXTD=
EXTT0=
EXTT1=
EXTT2=
EXTT3=
EXTT4=
EXTT5=
EXTT6=
EXTT7=
EXTT8=
EXTT9=
EXTT10=
EXTT11=
EXTT12=
EXTT13=
EXTT14=
EXTT15=
EXTT16=
EXTT17=
EXTT18=
EXTT19=
PLAYORDER=
